<svg width="15" height="15" viewBox="0 0 15 15" fill="none" xmlns="http://www.w3.org/2000/svg">
<path d="M7.50044 4.49555C5.83784 4.49555 4.49604 5.83735 4.49604 7.49995C4.49604 9.16255 5.83784 10.5043 7.50044 10.5043C9.16304 10.5043 10.5048 9.16255 10.5048 7.49995C10.5048 5.83735 9.16304 4.49555 7.50044 4.49555ZM7.50044 9.45259C6.42524 9.45259 5.5478 8.57514 5.5478 7.49995C5.5478 6.42475 6.42524 5.54731 7.50044 5.54731C8.57563 5.54731 9.45307 6.42475 9.45307 7.49995C9.45307 8.57514 8.57563 9.45259 7.50044 9.45259ZM10.6279 3.67231C10.2397 3.67231 9.92622 3.98579 9.92622 4.37397C9.92622 4.76216 10.2397 5.07563 10.6279 5.07563C11.0161 5.07563 11.3295 4.76362 11.3295 4.37397C11.3297 4.2818 11.3116 4.1905 11.2764 4.10532C11.2411 4.02014 11.1895 3.94274 11.1243 3.87756C11.0591 3.81239 10.9817 3.76071 10.8965 3.72549C10.8113 3.69027 10.7201 3.6722 10.6279 3.67231ZM13.3569 7.49995C13.3569 6.69135 13.3642 5.89008 13.3188 5.08296C13.2734 4.14546 13.0595 3.31342 12.374 2.62788C11.687 1.94087 10.8564 1.72846 9.9189 1.68305C9.1103 1.63764 8.30903 1.64497 7.5019 1.64497C6.69331 1.64497 5.89204 1.63764 5.08491 1.68305C4.14741 1.72846 3.31538 1.94233 2.62983 2.62788C1.94282 3.31489 1.73042 4.14546 1.68501 5.08296C1.6396 5.89155 1.64692 6.69282 1.64692 7.49995C1.64692 8.30708 1.6396 9.10981 1.68501 9.91694C1.73042 10.8544 1.94428 11.6865 2.62983 12.372C3.31684 13.059 4.14741 13.2714 5.08491 13.3168C5.8935 13.3623 6.69477 13.3549 7.5019 13.3549C8.3105 13.3549 9.11177 13.3623 9.9189 13.3168C10.8564 13.2714 11.6884 13.0576 12.374 12.372C13.061 11.685 13.2734 10.8544 13.3188 9.91694C13.3657 9.10981 13.3569 8.30854 13.3569 7.49995ZM12.0678 10.9541C11.9609 11.2207 11.832 11.4199 11.6254 11.6249C11.4189 11.8315 11.2211 11.9604 10.9545 12.0673C10.184 12.3735 8.35444 12.3046 7.50044 12.3046C6.64643 12.3046 4.81538 12.3735 4.04487 12.0688C3.77827 11.9619 3.57905 11.833 3.37397 11.6264C3.16743 11.4199 3.03852 11.2221 2.93159 10.9555C2.6269 10.1835 2.69575 8.35395 2.69575 7.49995C2.69575 6.64594 2.6269 4.81489 2.93159 4.04438C3.03852 3.77778 3.16743 3.57856 3.37397 3.37348C3.58051 3.1684 3.77827 3.03803 4.04487 2.9311C4.81538 2.62641 6.64643 2.69526 7.50044 2.69526C8.35444 2.69526 10.1855 2.62641 10.956 2.9311C11.2226 3.03803 11.4218 3.16694 11.6269 3.37348C11.8334 3.58003 11.9624 3.77778 12.0693 4.04438C12.374 4.81489 12.3051 6.64594 12.3051 7.49995C12.3051 8.35395 12.374 10.1835 12.0678 10.9541Z" fill="white"/>
</svg>
