<svg width="14" height="14" viewBox="0 0 14 14" fill="none" xmlns="http://www.w3.org/2000/svg">
<g clip-path="url(#clip0_147_140)">
<path d="M6.64947 0.0022813C5.52597 0.0158438 3.11053 0.200469 1.75953 1.43991C0.754596 2.43566 0.403721 3.90784 0.362596 5.72828C0.328471 7.54216 0.287346 10.9485 3.57078 11.876V13.2887C3.57078 13.2887 3.55022 13.854 3.92385 13.9699C4.3841 14.1156 4.64616 13.6807 5.08366 13.2135L5.8996 12.2908C8.14616 12.4776 9.86685 12.0471 10.065 11.9832C10.5209 11.8375 13.0886 11.5094 13.5082 8.10259C13.9387 4.58422 13.2986 2.36741 12.1432 1.36466H12.1362C11.7875 1.04353 10.3862 0.0224063 7.25541 0.0110313C7.25541 0.0110313 7.0231 -0.0047187 6.64947 0.0018438V0.0022813ZM6.68797 0.991469C7.00691 0.989281 7.20072 1.00284 7.20072 1.00284C9.85066 1.00984 11.1155 1.80741 11.4138 2.07603C12.3868 2.90991 12.8882 4.90841 12.5212 7.84578C12.1725 10.6939 10.09 10.8742 9.70453 10.9971C9.54047 11.0496 8.02497 11.4232 6.11572 11.3003C6.11572 11.3003 4.69385 13.0162 4.24935 13.458C4.17891 13.5355 4.09666 13.5582 4.04416 13.5468C3.96891 13.5285 3.94616 13.4353 3.95053 13.3075L3.9641 10.963C1.17941 10.193 1.34347 7.28753 1.37322 5.76984C1.40735 4.25216 1.69216 3.01053 2.54003 2.16966C3.68147 1.13759 5.73247 0.998469 6.6871 0.991469H6.68797ZM6.89797 2.50872C6.87505 2.50849 6.85231 2.5128 6.83107 2.52139C6.80982 2.52999 6.79049 2.54271 6.77418 2.55881C6.75787 2.57492 6.74491 2.59409 6.73605 2.61523C6.72718 2.63637 6.72259 2.65905 6.72253 2.68197C6.72253 2.77997 6.80216 2.85741 6.89797 2.85741C7.33175 2.84916 7.76288 2.92687 8.16648 3.08606C8.57008 3.24524 8.93818 3.48276 9.24953 3.78491C9.88522 4.40222 10.195 5.23172 10.2068 6.31628C10.2068 6.41209 10.2842 6.49172 10.3822 6.49172V6.48472C10.4284 6.48484 10.4728 6.46669 10.5056 6.43424C10.5385 6.40178 10.5572 6.35765 10.5577 6.31147C10.5789 5.80097 10.4961 5.29149 10.3143 4.81398C10.1326 4.33647 9.85557 3.90091 9.50022 3.53378C8.80766 2.85697 7.93003 2.50828 6.89797 2.50828V2.50872ZM4.59191 2.90991C4.46807 2.89181 4.34178 2.91667 4.23403 2.98034H4.22485C3.97471 3.12697 3.74938 3.31228 3.55722 3.52941C3.39753 3.71403 3.31091 3.90084 3.28816 4.08066C3.2746 4.18784 3.28378 4.29503 3.31572 4.39741L3.3271 4.40441C3.50691 4.93291 3.74185 5.44128 4.02885 5.91991C4.39854 6.59232 4.85351 7.21419 5.38247 7.77009L5.39822 7.79284L5.42316 7.81122L5.43891 7.82959L5.45728 7.84534C6.0152 8.37585 6.63857 8.83295 7.31228 9.20553C8.08228 9.62466 8.54953 9.82284 8.82997 9.90509V9.90947C8.91222 9.93441 8.98703 9.94578 9.06228 9.94578C9.30128 9.92827 9.52754 9.83124 9.70497 9.67016C9.92111 9.47795 10.1044 9.25169 10.2475 9.00034V8.99597C10.3818 8.74309 10.3363 8.50378 10.1425 8.34191C9.75433 8.00262 9.3346 7.70127 8.88903 7.44197C8.59066 7.28009 8.28747 7.37809 8.16453 7.54216L7.90247 7.87247C7.76816 8.03653 7.52403 8.01378 7.52403 8.01378L7.51703 8.01816C5.6966 7.55309 5.21097 5.70991 5.21097 5.70991C5.21097 5.70991 5.18822 5.45922 5.35666 5.33147L5.68478 5.06722C5.84185 4.93947 5.95122 4.63672 5.78278 4.33791C5.52527 3.89172 5.22458 3.4719 4.88503 3.08447C4.8108 2.99313 4.70666 2.93099 4.59103 2.90903L4.59191 2.90991ZM7.20072 3.42966C6.96841 3.42966 6.96841 3.78053 7.20291 3.78053C7.49178 3.78522 7.7769 3.84678 8.04197 3.96171C8.30703 4.07664 8.54685 4.24268 8.74772 4.45034C8.93096 4.65247 9.07176 4.88932 9.16179 5.14686C9.25182 5.4044 9.28924 5.67739 9.27184 5.94966C9.27264 5.99573 9.29145 6.03967 9.32424 6.07205C9.35703 6.10443 9.4012 6.12268 9.44728 6.12291L9.45428 6.13209C9.50071 6.13175 9.54513 6.11316 9.57796 6.08033C9.61078 6.0475 9.62938 6.00308 9.62972 5.95666C9.64547 5.26147 9.42935 4.67828 9.00541 4.21103C8.57928 3.74378 7.98472 3.48172 7.22566 3.42966H7.20072ZM7.48816 4.37291C7.24885 4.36591 7.23966 4.72378 7.47678 4.73078C8.05341 4.76053 8.33341 5.05191 8.37016 5.65128C8.37096 5.69678 8.38954 5.74015 8.42192 5.77213C8.4543 5.8041 8.4979 5.82212 8.54341 5.82234H8.55041C8.5738 5.82134 8.59676 5.81569 8.61795 5.80572C8.63913 5.79574 8.65812 5.78165 8.6738 5.76426C8.68948 5.74687 8.70154 5.72653 8.70927 5.70443C8.71701 5.68232 8.72026 5.6589 8.71885 5.63553C8.67772 4.85416 8.2516 4.41403 7.49516 4.37334H7.48816V4.37291Z" fill="white"/>
</g>
<defs>
<clipPath id="clip0_147_140">
<rect width="14" height="14" fill="white"/>
</clipPath>
</defs>
</svg>
