<svg width="20" height="20" viewBox="0 0 20 20" fill="none" xmlns="http://www.w3.org/2000/svg">
<path fill-rule="evenodd" clip-rule="evenodd" d="M10.04 14.3601H10.84C10.84 14.3601 11.08 14.3201 11.2 14.2001C11.32 14.0801 11.32 13.8401 11.32 13.8401C11.32 13.8401 11.32 12.8001 11.8 12.6401C12.28 12.4801 12.92 13.6801 13.56 14.1201C14.04 14.4801 14.4 14.4001 14.4 14.4001L16.16 14.3601C16.16 14.3601 17.08 14.3201 16.64 13.5601C16.6 13.5201 16.4 13.0401 15.32 12.0401C14.2 11.0001 14.36 11.2001 15.68 9.40009C16.48 8.32009 16.8 7.68009 16.72 7.36009C16.64 7.08009 16.04 7.16009 16.04 7.16009H14.04C14.04 7.16009 13.88 7.12009 13.8 7.20009C13.68 7.28009 13.64 7.40009 13.64 7.40009C13.64 7.40009 13.32 8.24009 12.92 8.96009C12.04 10.4401 11.68 10.5201 11.56 10.4401C11.24 10.2401 11.32 9.56009 11.32 9.12009C11.32 7.68009 11.56 7.08009 10.88 6.92009C10.68 6.88009 10.52 6.84009 9.96001 6.84009C9.24001 6.84009 8.64001 6.84009 8.32001 7.00009C8.08001 7.12009 7.92001 7.36009 8.04001 7.36009C8.16001 7.36009 8.48001 7.44009 8.64001 7.64009C8.80001 8.00009 8.80001 8.60009 8.80001 8.60009C8.80001 8.60009 8.92001 10.3201 8.52001 10.5201C8.24001 10.6801 7.88001 10.3601 7.08001 9.00009C6.68001 8.32009 6.36001 7.52009 6.36001 7.52009C6.36001 7.52009 6.32001 7.36009 6.20001 7.28009C6.08001 7.20009 5.88001 7.16009 5.88001 7.16009H4.00001C4.00001 7.16009 3.72001 7.16009 3.60001 7.28009C3.52001 7.40009 3.60001 7.60009 3.60001 7.60009C3.60001 7.60009 5.08001 11.0401 6.76001 12.8001C8.32001 14.4801 10.04 14.3601 10.04 14.3601Z" fill="white"/>
</svg>
