<svg width="50" height="50" viewBox="0 0 50 50" fill="none" xmlns="http://www.w3.org/2000/svg">
<circle cx="25" cy="25" r="24.5" stroke="white"/>
<path d="M22.4673 19.5918C22.3951 19.549 22.313 19.5261 22.2291 19.5254C22.1453 19.5247 22.0628 19.5461 21.9899 19.5876C21.9171 19.6291 21.8565 19.6892 21.8144 19.7616C21.7722 19.8341 21.75 19.9165 21.75 20.0003V30.9997C21.75 31.0836 21.7722 31.1659 21.8144 31.2384C21.8565 31.3109 21.9171 31.3709 21.9899 31.4124C22.0628 31.4539 22.1453 31.4754 22.2291 31.4746C22.313 31.4739 22.3951 31.451 22.4673 31.4082L31.748 25.9085C31.8188 25.8665 31.8776 25.8067 31.9183 25.7351C31.9591 25.6634 31.9806 25.5824 31.9806 25.5C31.9806 25.4176 31.9591 25.3366 31.9183 25.265C31.8776 25.1934 31.8188 25.1336 31.748 25.0915L22.4673 19.5918Z" fill="white" stroke="white" stroke-width="1.5" stroke-linecap="round" stroke-linejoin="round"/>
</svg>
